<svg xmlns="http://www.w3.org/2000/svg" viewBox="15 22 148 148">
  <rect width="178" height="170" x="0" y="0" fill="white"/>
  <g transform="matrix(0.088521,0,0,0.088521,4.320281,-7.528362)">
    <path d="M947,432L947,645.265L852.091,719L729,719C729,719 482.795,738.61 489,975C494.366,1179.446 654.967,1219.399 735.378,1226.548C748.325,1227.699 759.193,1228 767,1228C767.264,1228 767.378,1216.735 767.393,1198.798C767.453,1128.76 766,957 766,957L1064,696L1064,434L1223,434C1223,434 1248.166,434.67 1276.256,438.978C1401.255,458.147 1734.565,549.342 1742,974C1749.987,1430.159 1284.813,1509.519 1285,1510C1285,1510 1254.662,1516 1221,1516L951,1516L951,1328L1061,1230L1228,1228C1228,1228 1365.053,1227.726 1436,1090C1508.975,948.338 1404,814 1404,814L603,1504C603,1504 188.373,1408.231 193,967C197.654,523.262 619.592,434.56 676,433C680.348,432.88 698.332,431.339 702.796,431.192C739.687,429.976 947,432 947,432Z" fill="rgb(139,0,0)"/>
  </g>
</svg>
